<?xml version="1.0" encoding="UTF-8"?>
<svg version="1.1" xmlns="http://www.w3.org/2000/svg" width="24" height="24">
<path d="M0 0 C6.6 0 13.2 0 20 0 C19.67 6.6 19.34 13.2 19 20 C13.06 20 7.12 20 1 20 C0.67 13.4 0.34 6.8 0 0 Z M2 2 C2 2.99 2 3.98 2 5 C7.28 5 12.56 5 18 5 C18 4.01 18 3.02 18 2 C12.72 2 7.44 2 2 2 Z M3 7 C3 10.63 3 14.26 3 18 C7.62 18 12.24 18 17 18 C17 14.37 17 10.74 17 7 C12.38 7 7.76 7 3 7 Z " fill="#14213D" transform="translate(2,2)"/>
<path d="M0 0 C1.98 0 3.96 0 6 0 C6 0.66 6 1.32 6 2 C4.02 2 2.04 2 0 2 C0 1.34 0 0.68 0 0 Z " fill="#14213D" transform="translate(9,12)"/>
</svg>
