<?xml version="1.0" encoding="UTF-8"?>
<svg version="1.1" xmlns="http://www.w3.org/2000/svg" width="24" height="24">
<path d="M0 0 C5.94 0 11.88 0 18 0 C18 3.96 18 7.92 18 12 C12.06 12 6.12 12 0 12 C0 8.04 0 4.08 0 0 Z M4 2 C4 2.66 4 3.32 4 4 C3.34 4 2.68 4 2 4 C2 5.32 2 6.64 2 8 C2.66 8 3.32 8 4 8 C4 8.66 4 9.32 4 10 C7.3 10 10.6 10 14 10 C14 9.34 14 8.68 14 8 C14.66 8 15.32 8 16 8 C16 6.68 16 5.36 16 4 C15.34 4 14.68 4 14 4 C14 3.34 14 2.68 14 2 C10.7 2 7.4 2 4 2 Z " fill="#14213D" transform="translate(5,4)"/>
<path d="M0 0 C0.66 0 1.32 0 2 0 C2 3.63 2 7.26 2 11 C7.61 11 13.22 11 19 11 C19 11.66 19 12.32 19 13 C12.73 13 6.46 13 0 13 C0 8.71 0 4.42 0 0 Z " fill="#14203D" transform="translate(1,7)"/>
<path d="M0 0 C1.65 0.33 3.3 0.66 5 1 C4.67 2.65 4.34 4.3 4 6 C2.35 5.67 0.7 5.34 -1 5 C-0.67 3.35 -0.34 1.7 0 0 Z " fill="#14213D" transform="translate(12,7)"/>
</svg>
