<?xml version="1.0" encoding="UTF-8"?>
<svg version="1.1" xmlns="http://www.w3.org/2000/svg" width="24" height="24">
<path d="M0 0 C2.01822917 0.06510417 4.03645833 0.13020833 6.0546875 0.1953125 C6.0546875 1.5153125 6.0546875 2.8353125 6.0546875 4.1953125 C4.0746875 4.1953125 2.0946875 4.1953125 0.0546875 4.1953125 C0.0546875 8.1553125 0.0546875 12.1153125 0.0546875 16.1953125 C2.0346875 16.1953125 4.0146875 16.1953125 6.0546875 16.1953125 C6.0546875 17.5153125 6.0546875 18.8353125 6.0546875 20.1953125 C0 20.390625 0 20.390625 -1.9453125 20.1953125 C-4.50480249 17.63582251 -4.20599981 15.92324055 -4.21875 12.4296875 C-4.21101562 11.69234375 -4.20328125 10.955 -4.1953125 10.1953125 C-4.20304688 9.45796875 -4.21078125 8.720625 -4.21875 7.9609375 C-4.19123127 0.42080635 -4.19123127 0.42080635 0 0 Z " fill="#13223E" transform="translate(5.9453125,1.8046875)"/>
<path d="M0 0 C1.98 1.65 3.96 3.3 6 5 C4.60667426 8.36720387 3.0210714 9.9859524 0 12 C-0.33 11.01 -0.66 10.02 -1 9 C-2.65 8.67 -4.3 8.34 -6 8 C-6 6.68 -6 5.36 -6 4 C-4.35 3.67 -2.7 3.34 -1 3 C-0.67 2.01 -0.34 1.02 0 0 Z " fill="#13213D" transform="translate(15,6)"/>
</svg>
