<?xml version="1.0" encoding="UTF-8"?>
<svg version="1.1" xmlns="http://www.w3.org/2000/svg" width="21" height="21">
<path d="M0 0 C2.64 0 5.28 0 8 0 C8 1.32 8 2.64 8 4 C9.98 4 11.96 4 14 4 C14 6.31 14 8.62 14 11 C13.34 10.67 12.68 10.34 12 10 C12 8.68 12 7.36 12 6 C6.72 6 1.44 6 -4 6 C-4 9.63 -4 13.26 -4 17 C-1.36 17 1.28 17 4 17 C4 17.66 4 18.32 4 19 C0.7 19 -2.6 19 -6 19 C-6 14.05 -6 9.1 -6 4 C-4.02 4 -2.04 4 0 4 C0 2.68 0 1.36 0 0 Z M2 2 C2 2.66 2 3.32 2 4 C3.32 4 4.64 4 6 4 C6 3.34 6 2.68 6 2 C4.68 2 3.36 2 2 2 Z " fill="#14213D" transform="translate(6,0)"/>
<path d="M0 0 C3 0.25 3 0.25 5 2.25 C5.25 5.25 5.25 5.25 5 8.25 C3 10.25 3 10.25 0 10.5 C-3 10.25 -3 10.25 -5 8.25 C-5.25 5.25 -5.25 5.25 -5 2.25 C-3 0.25 -3 0.25 0 0 Z " fill="#14213D" transform="translate(16,10.75)"/>
</svg>
